<svg width="139" height="27" viewBox="0 0 139 27" fill="none" xmlns="http://www.w3.org/2000/svg">
<path d="M16.9125 16.4844H16.2078C15.2212 14.7881 14.5166 12.5697 13.8119 10.3514L15.0803 11.5258C18.8856 14.2661 22.2681 13.7441 22.2681 13.7441C22.2681 13.7441 23.2547 8.78551 19.4494 6.1757C16.2078 3.82687 13.2481 3.82687 12.4025 3.95736C12.2616 3.17441 12.2616 2.52196 12.1206 2L10.1475 2.13049C10.1475 6.30619 6.34219 14.0051 5.07375 16.4844C2.255 16.7454 0 18.9638 0 21.7041C0 24.5749 2.53687 26.9237 5.6375 26.9237C7.18781 26.9237 8.45625 26.4017 9.44281 25.4883C8.87906 24.3139 8.45625 23.009 8.45625 21.7041C8.45625 20.3992 8.87906 19.0943 9.44281 17.9198C8.87906 17.3979 8.03344 17.0064 7.32875 16.7454C8.31531 14.7881 10.0066 11.2648 11.1341 7.87207C11.6978 10.8734 12.8253 14.3966 14.2347 17.1369C12.5434 18.0503 11.275 19.7467 11.275 21.7041C11.275 24.5749 13.8119 26.9237 16.9125 26.9237C20.0131 26.9237 22.55 24.5749 22.55 21.7041C22.55 18.8333 20.0131 16.4844 16.9125 16.4844ZM5.6375 19.7467C4.51 19.7467 3.52344 20.6601 3.52344 21.7041H2.11406C2.11406 19.8772 3.66437 18.4418 5.6375 18.4418V19.7467ZM16.9125 19.7467C15.785 19.7467 14.7984 20.6601 14.7984 21.7041H13.3891C13.3891 19.8772 14.9394 18.4418 16.9125 18.4418V19.7467Z" fill="white"/>
<path d="M32.6465 24.2188C32.0306 24.2188 31.5526 24.0486 31.2122 23.7083C30.8881 23.3679 30.726 22.8736 30.726 22.2254V8.83056C30.726 8.1985 30.8962 7.7123 31.2365 7.37196C31.5769 7.03162 32.0631 6.86145 32.6951 6.86145H41.0091C41.4953 6.86145 41.86 6.9911 42.1031 7.25041C42.3624 7.49351 42.492 7.85006 42.492 8.32005C42.492 8.80625 42.3624 9.179 42.1031 9.43831C41.86 9.68141 41.4953 9.80296 41.0091 9.80296H34.4941V13.9843H40.4743C40.9605 13.9843 41.3333 14.1139 41.5926 14.3732C41.8519 14.6163 41.9815 14.9729 41.9815 15.4429C41.9815 15.9129 41.8519 16.2775 41.5926 16.5368C41.3333 16.7961 40.9605 16.9258 40.4743 16.9258H34.4941V22.2254C34.4941 23.5543 33.8782 24.2188 32.6465 24.2188ZM45.9331 24.2188C45.3172 24.2188 44.8472 24.0567 44.5231 23.7326C44.1989 23.4085 44.0369 22.9466 44.0369 22.3469V13.7169C44.0369 13.1172 44.1908 12.6634 44.4988 12.3555C44.8229 12.0314 45.2686 11.8693 45.8358 11.8693C46.4193 11.8693 46.8649 12.0314 47.1729 12.3555C47.4808 12.6634 47.6348 13.1172 47.6348 13.7169V14.981H47.3917C47.5861 14.0086 48.0156 13.255 48.6801 12.7202C49.3446 12.1853 50.2035 11.8855 51.2569 11.8207C51.6621 11.7883 51.97 11.8936 52.1807 12.1367C52.4076 12.3636 52.5292 12.7445 52.5454 13.2793C52.5778 13.7817 52.4724 14.1788 52.2293 14.4705C52.0025 14.7622 51.6135 14.9405 51.0625 15.0053L50.5033 15.0539C49.5796 15.135 48.8908 15.4024 48.437 15.8561C47.9994 16.3099 47.7806 16.9663 47.7806 17.8253V22.3469C47.7806 22.9466 47.6185 23.4085 47.2944 23.7326C46.9865 24.0567 46.5327 24.2188 45.9331 24.2188ZM60.0406 24.2674C58.6307 24.2674 57.4152 24.0162 56.3941 23.5138C55.3893 22.9952 54.6114 22.274 54.0604 21.3502C53.5256 20.4102 53.2582 19.3082 53.2582 18.0441C53.2582 16.8123 53.5175 15.7346 54.0361 14.8108C54.5547 13.8708 55.2759 13.1415 56.1997 12.6229C57.1396 12.0881 58.2012 11.8207 59.3843 11.8207C60.2432 11.8207 61.0211 11.9665 61.718 12.2583C62.4149 12.5338 63.0146 12.9389 63.517 13.4738C64.0194 13.9924 64.4002 14.6325 64.6595 15.3943C64.9188 16.1398 65.0485 16.9744 65.0485 17.8982C65.0485 18.2061 64.9513 18.4411 64.7568 18.6032C64.5623 18.749 64.2787 18.822 63.9059 18.822H56.2726V16.9258H62.3987L62.0098 17.2661C62.0098 16.6017 61.9125 16.0506 61.718 15.613C61.5236 15.1593 61.2399 14.8189 60.8672 14.592C60.5106 14.3651 60.065 14.2517 59.5301 14.2517C58.9305 14.2517 58.42 14.3894 57.9986 14.665C57.5772 14.9405 57.2531 15.3375 57.0262 15.8561C56.7993 16.3748 56.6859 16.9987 56.6859 17.728V17.9225C56.6859 19.1542 56.9695 20.0618 57.5367 20.6452C58.1202 21.2287 58.9791 21.5204 60.1136 21.5204C60.5025 21.5204 60.9482 21.4718 61.4506 21.3745C61.953 21.2773 62.423 21.1233 62.8606 20.9126C63.2334 20.7344 63.5656 20.6776 63.8573 20.7425C64.149 20.7911 64.3759 20.9207 64.538 21.1314C64.7001 21.3421 64.7892 21.5852 64.8054 21.8607C64.8378 22.1362 64.7811 22.4117 64.6352 22.6873C64.4894 22.9466 64.2463 23.1654 63.9059 23.3436C63.3549 23.6516 62.7309 23.8784 62.0341 24.0243C61.3534 24.1864 60.6889 24.2674 60.0406 24.2674ZM71.7539 24.2674C71.0408 24.2674 70.3034 24.2026 69.5417 24.0729C68.7962 23.9433 68.1155 23.7245 67.4996 23.4166C67.1755 23.2545 66.9405 23.0519 66.7946 22.8088C66.665 22.5495 66.6083 22.2902 66.6245 22.0309C66.6407 21.7716 66.7217 21.5366 66.8676 21.3259C67.0296 21.1152 67.2322 20.9775 67.4753 20.9126C67.7346 20.8316 68.0182 20.8559 68.3262 20.9856C68.9906 21.2611 69.5984 21.4556 70.1494 21.569C70.7004 21.6824 71.2434 21.7392 71.7782 21.7392C72.4751 21.7392 72.9775 21.6338 73.2854 21.4231C73.6095 21.1962 73.7716 20.9045 73.7716 20.548C73.7716 20.2238 73.6663 19.9807 73.4556 19.8187C73.2449 19.6566 72.937 19.5432 72.5318 19.4783L69.9793 19.0164C68.9744 18.8382 68.1965 18.4735 67.6455 17.9225C67.1107 17.3553 66.8433 16.6341 66.8433 15.7589C66.8433 14.9486 67.0702 14.2517 67.5239 13.6682C67.9777 13.0686 68.6017 12.6148 69.3958 12.3069C70.2061 11.9828 71.1218 11.8207 72.1428 11.8207C72.8721 11.8207 73.5447 11.8855 74.1606 12.0152C74.7764 12.1448 75.368 12.3555 75.9352 12.6472C76.2269 12.7931 76.4295 12.9876 76.543 13.2307C76.6726 13.4738 76.7131 13.725 76.6645 13.9843C76.6321 14.2436 76.5348 14.4786 76.3728 14.6893C76.2107 14.9 76 15.0377 75.7407 15.1025C75.4976 15.1674 75.214 15.135 74.8899 15.0053C74.3713 14.7622 73.8932 14.592 73.4556 14.4948C73.018 14.3813 72.5966 14.3246 72.1915 14.3246C71.4622 14.3246 70.9354 14.4462 70.6113 14.6893C70.2872 14.9162 70.1251 15.2079 70.1251 15.5644C70.1251 15.8399 70.2142 16.0749 70.3925 16.2694C70.587 16.4477 70.8787 16.5692 71.2677 16.6341L73.8202 17.096C74.8737 17.2742 75.6759 17.6308 76.2269 18.1656C76.7779 18.6842 77.0535 19.3973 77.0535 20.3049C77.0535 21.5366 76.5673 22.509 75.5949 23.2221C74.6387 23.919 73.3583 24.2674 71.7539 24.2674ZM80.9962 24.2188C80.3966 24.2188 79.9347 24.0567 79.6106 23.7326C79.3026 23.4085 79.1487 22.9466 79.1487 22.3469V8.51453C79.1487 7.89868 79.3026 7.43679 79.6106 7.12886C79.9347 6.80473 80.3966 6.64266 80.9962 6.64266C81.5797 6.64266 82.0254 6.80473 82.3333 7.12886C82.6574 7.43679 82.8195 7.89868 82.8195 8.51453V14.3003H82.4792C82.8519 13.5062 83.4029 12.8984 84.1322 12.4771C84.8777 12.0395 85.7205 11.8207 86.6605 11.8207C87.6167 11.8207 88.4027 12.0071 89.0185 12.3798C89.6344 12.7364 90.0963 13.2874 90.4042 14.0329C90.7121 14.7622 90.8661 15.6941 90.8661 16.8285V22.3469C90.8661 22.9466 90.704 23.4085 90.3799 23.7326C90.072 24.0567 89.6182 24.2188 89.0185 24.2188C88.4351 24.2188 87.9813 24.0567 87.6572 23.7326C87.3493 23.4085 87.1953 22.9466 87.1953 22.3469V16.9987C87.1953 16.1722 87.0413 15.5806 86.7334 15.2241C86.4417 14.8513 85.9879 14.665 85.372 14.665C84.5941 14.665 83.9702 14.9081 83.5002 15.3943C83.0464 15.8805 82.8195 16.5287 82.8195 17.3391V22.3469C82.8195 23.5948 82.2117 24.2188 80.9962 24.2188ZM95.8187 24.2188C95.2028 24.2188 94.7328 24.0486 94.4087 23.7083C94.0846 23.3679 93.9225 22.8898 93.9225 22.274V8.58746C93.9225 7.97161 94.0846 7.49351 94.4087 7.15317C94.7328 6.81283 95.2028 6.64266 95.8187 6.64266C96.4183 6.64266 96.8802 6.81283 97.2044 7.15317C97.5285 7.49351 97.6906 7.97161 97.6906 8.58746V13.7412H105.664V8.58746C105.664 7.97161 105.826 7.49351 106.15 7.15317C106.475 6.81283 106.936 6.64266 107.536 6.64266C108.152 6.64266 108.622 6.81283 108.946 7.15317C109.27 7.49351 109.432 7.97161 109.432 8.58746V22.274C109.432 22.8898 109.27 23.3679 108.946 23.7083C108.622 24.0486 108.152 24.2188 107.536 24.2188C106.936 24.2188 106.475 24.0486 106.15 23.7083C105.826 23.3679 105.664 22.8898 105.664 22.274V16.8772H97.6906V22.274C97.6906 22.8898 97.5285 23.3679 97.2044 23.7083C96.8964 24.0486 96.4345 24.2188 95.8187 24.2188ZM116.975 24.2674C115.97 24.2674 115.136 24.081 114.471 23.7083C113.807 23.3355 113.312 22.7764 112.988 22.0309C112.68 21.2692 112.526 20.3292 112.526 19.2109V13.7169C112.526 13.101 112.68 12.6391 112.988 12.3312C113.312 12.0233 113.766 11.8693 114.35 11.8693C114.933 11.8693 115.387 12.0233 115.711 12.3312C116.035 12.6391 116.197 13.101 116.197 13.7169V19.3082C116.197 20.0213 116.343 20.5561 116.635 20.9126C116.926 21.253 117.388 21.4231 118.02 21.4231C118.717 21.4231 119.284 21.18 119.722 20.6938C120.176 20.1914 120.403 19.5351 120.403 18.7247V13.7169C120.403 13.101 120.557 12.6391 120.865 12.3312C121.189 12.0233 121.643 11.8693 122.226 11.8693C122.826 11.8693 123.279 12.0233 123.587 12.3312C123.911 12.6391 124.074 13.101 124.074 13.7169V22.3469C124.074 23.5948 123.482 24.2188 122.299 24.2188C121.715 24.2188 121.27 24.0567 120.962 23.7326C120.654 23.4085 120.5 22.9466 120.5 22.3469V20.7181L120.865 21.6662C120.508 22.4928 119.998 23.1329 119.333 23.5867C118.669 24.0405 117.883 24.2674 116.975 24.2674ZM132.773 24.2674C131.654 24.2674 130.714 24.081 129.953 23.7083C129.207 23.3355 128.648 22.7926 128.275 22.0795C127.919 21.3664 127.741 20.4669 127.741 19.3811V14.8108H126.72C126.266 14.8108 125.909 14.6893 125.65 14.4462C125.407 14.2031 125.285 13.8708 125.285 13.4495C125.285 12.9957 125.407 12.6553 125.65 12.4284C125.909 12.1853 126.266 12.0638 126.72 12.0638H127.741V10.2162C127.741 9.60038 127.903 9.13849 128.227 8.83056C128.551 8.50643 129.005 8.34436 129.588 8.34436C130.188 8.34436 130.642 8.50643 130.949 8.83056C131.257 9.13849 131.411 9.60038 131.411 10.2162V12.0638H133.721C134.175 12.0638 134.523 12.1853 134.766 12.4284C135.009 12.6553 135.131 12.9957 135.131 13.4495C135.131 13.8708 135.009 14.2031 134.766 14.4462C134.523 14.6893 134.175 14.8108 133.721 14.8108H131.411V19.2352C131.411 19.9159 131.565 20.4264 131.873 20.7668C132.197 21.1071 132.708 21.2773 133.405 21.2773C133.648 21.2773 133.875 21.253 134.085 21.2044C134.296 21.1557 134.491 21.1233 134.669 21.1071C134.896 21.0909 135.082 21.1638 135.228 21.3259C135.374 21.4718 135.447 21.804 135.447 22.3226C135.447 22.7116 135.382 23.0519 135.252 23.3436C135.123 23.6353 134.896 23.846 134.572 23.9757C134.361 24.0567 134.069 24.1216 133.697 24.1702C133.34 24.235 133.032 24.2674 132.773 24.2674Z" fill="white"/>
</svg>
